<?xml version="1.0" encoding="utf-8"?>
<!-- Generator: Adobe Illustrator 16.0.3, SVG Export Plug-In . SVG Version: 6.00 Build 0)  -->
<!DOCTYPE svg PUBLIC "-//W3C//DTD SVG 1.1//EN" "http://www.w3.org/Graphics/SVG/1.1/DTD/svg11.dtd">
<svg version="1.1" id="Ebene_1" xmlns="http://www.w3.org/2000/svg" xmlns:xlink="http://www.w3.org/1999/xlink" x="0px" y="0px"
	 width="547px" height="547px" viewBox="-12 -89.5 547 547" enable-background="new -12 -89.5 547 547" xml:space="preserve">
<g>
	<path fill="#FFFFFF" d="M261.5-89.5C110.449-89.5-12,32.949-12,184s122.449,273.5,273.5,273.5C412.55,457.5,535,335.051,535,184
		S412.55-89.5,261.5-89.5z M366.548-22.098c0-10.033,8.137-18.17,18.172-18.17c10.034,0,18.17,8.137,18.17,18.17v45.729
		c0,10.035-8.136,18.171-18.17,18.171c-10.035,0-18.172-8.136-18.172-18.171V-22.098z M121.048-22.18
		c0-10.034,8.136-18.171,18.172-18.171c10.033,0,18.17,8.137,18.17,18.171v45.729c0,10.035-8.137,18.171-18.17,18.171
		c-10.036,0-18.172-8.136-18.172-18.171V-22.18z M55.5,363.352v-359h43.585v18.533c0,22.13,18.004,40.134,40.135,40.134
		c22.129,0,40.133-18.004,40.133-40.134V4.351h165.232v18.616c0,22.13,18.004,40.134,40.135,40.134
		c22.129,0,40.133-18.004,40.133-40.134V4.351H467.5v359H55.5z"/>
	<path fill="#FFFFFF" d="M95.5,323.352h332V100.881h-332V323.352z M285.437,171.967c21.604,0.585,36.714-5.613,39.884-26.801h25.556
		v139.243h-31.436v-87.713h-34.004V171.967z M207.766,223.167v-23.504c13.796,1.206,28.788-0.778,28.788-14.627
		c0-10.972-8.879-15.968-17.128-15.968c-13.842,0-19.089,10.179-18.828,24.15h-30.196c1.24-33.771,21.714-50.757,48.831-50.757
		c23.301,0,47.404,14.768,47.404,39.481c0,12.792-5.647,22.758-15.363,27.61c12.706,4.885,20.387,16.393,20.387,31.124
		c0,28.926-23.898,46.247-52.233,46.249c-31.714,0-52.77-18.33-52.201-53.077h29.98c0.545,15.386,6.718,26.663,21.835,26.663
		c9.967,0,20.024-5.953,20.024-19.252C239.066,224.41,227.372,223.167,207.766,223.167z"/>
</g>
</svg>
