<?xml version="1.0" encoding="utf-8"?>
<!-- Generator: Adobe Illustrator 16.0.3, SVG Export Plug-In . SVG Version: 6.00 Build 0)  -->
<!DOCTYPE svg PUBLIC "-//W3C//DTD SVG 1.1//EN" "http://www.w3.org/Graphics/SVG/1.1/DTD/svg11.dtd">
<svg version="1.1" id="Ebene_1" xmlns="http://www.w3.org/2000/svg" xmlns:xlink="http://www.w3.org/1999/xlink" x="0px" y="0px"
	 width="547px" height="547px" viewBox="-12 -89.5 547 547" enable-background="new -12 -89.5 547 547" xml:space="preserve">
<g>
	<path fill="#FFFFFF" d="M220.833,321.37c7.418,7.552,12.744,6.834,19.697-0.353c16.903-17.477,34.137-34.641,51.6-51.561
		c6.853-6.638,6.815-11.816,0.036-18.51c-31.21-30.827-62.188-61.887-93.116-92.996c-5.828-5.862-10.748-7.306-17.258-0.624
		c-18.04,18.522-36.554,36.59-54.737,54.977c-2.093,2.118-3.29,5.125-5.18,8.168c2.596,3.219,4.634,6.259,7.165,8.801
		C159.633,259.977,190.464,290.448,220.833,321.37z M245.866,222.622l21.071,21.668l-27.433,69.778l-21.6-23.393L245.866,222.622z
		 M235.33,213.677l-27.434,69.777l-21.601-23.393l27.963-68.053L235.33,213.677z M182.053,161.592l21.071,21.668l-27.434,69.778
		l-21.601-23.393L182.053,161.592z"/>
	<path fill="#FFFFFF" d="M261.5-89.5C110.449-89.5-12,32.949-12,184c0,48.082,12.423,93.256,34.21,132.515
		c20.404-20.316,40.821-40.619,61.264-60.896c6.667-6.61,7.508-12.111,4.94-20.874c-7.686-26.244-9.132-53.038-3.862-80.089
		c8.493-43.59,29.214-79.67,64.543-108.502c57.099,57.266,113.512,113.214,169.02,170.044c11.2,11.465,17.622,10.282,27.859-0.518
		c27.972-29.503,56.959-58.042,86.892-88.328c10.646,25.61,13.957,57.654,9.794,84.438
		C425.615,321.43,323.036,388.983,215.212,361.996c-5.601-1.4-14.49-1.002-18.042,2.46c-21.016,20.508-41.959,41.091-62.875,61.702
		C172.297,446.162,215.571,457.5,261.5,457.5C412.55,457.5,535,335.051,535,184S412.55-89.5,261.5-89.5z M251.927,85.288
		c-21.063-20.854-42.32-41.893-63.949-63.301c42.963-19.444,86.959-21.972,133.058-6.681
		C296.916,39.73,273.98,62.958,251.927,85.288z"/>
</g>
<g display="none">
	<path display="inline" d="M261.5-89.5C110.449-89.5-12,32.949-12,184s122.449,273.5,273.5,273.5C412.55,457.5,535,335.051,535,184
		S412.55-89.5,261.5-89.5z"/>
</g>
</svg>
