<?xml version="1.0" encoding="utf-8"?>
<!-- Generator: Adobe Illustrator 16.0.3, SVG Export Plug-In . SVG Version: 6.00 Build 0)  -->
<!DOCTYPE svg PUBLIC "-//W3C//DTD SVG 1.1//EN" "http://www.w3.org/Graphics/SVG/1.1/DTD/svg11.dtd">
<svg version="1.1" id="Ebene_1" xmlns="http://www.w3.org/2000/svg" xmlns:xlink="http://www.w3.org/1999/xlink" x="0px" y="0px"
	 width="547px" height="547px" viewBox="-12 -89.5 547 547" enable-background="new -12 -89.5 547 547" xml:space="preserve">
<g display="none">
	<path display="inline" d="M261.5-89.5C110.449-89.5-12,32.949-12,184s122.449,273.5,273.5,273.5C412.55,457.5,535,335.051,535,184
		S412.55-89.5,261.5-89.5z"/>
</g>
<path fill="#FFFFFF" d="M261.5-89.5C110.449-89.5-12,32.949-12,184s122.449,273.5,273.5,273.5C412.55,457.5,535,335.051,535,184
	S412.55-89.5,261.5-89.5z M479.929,21.354L261.51,188.87L43.438,21.354H479.929z M41.928,67.238l128.485,98.698L41.928,294.42
	V67.238z M42.461,346.647l157.79-157.791l61.239,47.042l61.145-46.893l157.639,157.642H42.461z M352.49,166.107l128.581-98.615
	v227.195L352.49,166.107z"/>
</svg>
