<?xml version="1.0" encoding="utf-8"?>
<!-- Generator: Adobe Illustrator 16.0.3, SVG Export Plug-In . SVG Version: 6.00 Build 0)  -->
<!DOCTYPE svg PUBLIC "-//W3C//DTD SVG 1.1//EN" "http://www.w3.org/Graphics/SVG/1.1/DTD/svg11.dtd">
<svg version="1.1" id="Ebene_1" xmlns="http://www.w3.org/2000/svg" xmlns:xlink="http://www.w3.org/1999/xlink" x="0px" y="0px"
	 width="305.025px" height="300px" viewBox="0 0 305.025 300" enable-background="new 0 0 305.025 300" xml:space="preserve">
<path fill-rule="evenodd" clip-rule="evenodd" fill="#FFFFFF" d="M302.628,36.222c-7.322-18.957-18.844-33.183-40.744-35.475
	c-1.107-0.116-2.357,0.028-3.354-0.747c-70.666,0-141.333,0-212,0c-6.392,1.586-13.153,1.5-19.038,5.318
	C10.031,16.648,0.188,32.35,0.137,53.35C-0.018,117.593,0.141,181.837,0,246.08c-0.017,7.668,1.412,14.9,4.155,21.899
	c4.728,12.059,13.077,21.028,24.137,27.675c5.368,3.225,11.579,2.577,17.239,4.346c71.333,0,142.666,0,214,0
	c6.788-1.379,13.813-1.688,19.858-5.88c16.265-11.275,25.579-26.281,25.585-46.442c0.018-65.088-0.016-130.177,0.051-195.265
	C305.031,46.849,304.624,41.388,302.628,36.222z M223.296,256.869c-54.453,0-108.904,0-163.561,0c0-71.193,0-142.429,0-213.767
	c54.541,0,108.991,0,163.619,0c0,24.494,0,48.946,0,73.794c-4.963,0-9.748,0-14.824,0c0-10.562,0-21.021,0-31.481
	c0-10.325,0-20.65,0-31.195c-44.295,0-88.53,0-132.883,0c0,63.83,0,127.614,0,191.589c44.113,0,88.228,0,132.557,0
	c-0.094,0.083,0.051-0.009,0.145-0.138c0.088-0.12,0.174-0.279,0.174-0.422c0.008-15.976,0.008-31.951,0.008-48.088
	c4.957,0,9.744,0,14.766,0C223.296,216.932,223.296,236.834,223.296,256.869z M153.531,131.497
	c-8.432,8.489-17.242,16.777-24.174,26.396c0.434,2.688,1.82,4.182,3.253,5.72c6.533,7.012,14.547,12.459,20.817,20.021
	c0,10.854,0,21.964,0,32.963c-2.339,2.514-5.543,3.676-8.373,4.141c-5.152,0.848-9.826,2.974-14.734,4.389
	c-8.428,2.429-16.577,5.81-24.958,8.427c-3.255,1.018-6.35,2.767-9.598,3.266c-3.515,0.539-6.308,2.708-9.73,3.117
	c-0.857-4.859-1.188-136.589-0.419-174.917c7.428,1.099,14.629,3.049,21.925,4.494c7.54,1.493,15.151,2.7,22.596,4.571
	c7.272,1.828,14.801,2.469,21.893,4.962c1.36,2.052,1.531,3.903,1.525,5.861C153.511,100.392,153.531,115.877,153.531,131.497z
	 M276.531,183.478c-0.869,0.869-1.692,1.693-2.521,2.522c-23.982,0-47.976,0-72.479,0c0,6.822,0,13.3,0,19.777
	c0,1.166,0.166,2.365-0.054,3.488c-0.169,0.868-0.822,1.643-1.343,2.612c-0.824,0-1.791,0-3.861,0
	c-0.258-0.35-0.906-1.548-1.845-2.439c-17.927-17.032-35.565-34.357-52.858-51.974c0-0.682-0.278-1.693,0.044-1.949
	c2.863-2.274,4.38-5.667,6.999-8.151c3.987-3.783,7.709-7.847,11.707-11.618c12.428-11.724,23.42-24.836,35.69-36.706
	c1.419-0.292,2.595,0.064,3.579,1.648c0,7.812,0,15.93,0,24.213c24.953,0,49.732,0,74.5,0c1.674,2.204,2.451,4.528,2.449,7.161
	C276.523,149.22,276.531,166.377,276.531,183.478z"/>
</svg>
